<svg enable-background="new 0 0 146 25" viewBox="0 0 146 25" xmlns="http://www.w3.org/2000/svg">
    <g>
        <path d="m11.6.2 4.7 2.7.3.1 4.7 2.7.3.1c.1.2.3.4.4.5.1.2.1.3.1.5v6.8l-2-1.2v-5l-4.5-2.6-.3-.1-4.3-2.5-4.4 2.6-.3.1-4.2 2.5v5.2 5.2l4.5 2.6.3.1 1.9 1.1.1.1v.2 1.6.5l-.4-.3-2.6-1.5-.3-.1-4.7-2.7-.3-.1c-.2-.1-.3-.2-.4-.4-.1-.2-.2-.3-.2-.5v-5.8-5.8c0-.2.1-.4.2-.5.1-.2.2-.3.4-.4l4.7-2.7.2-.2.2-.1 4.5-2.6.3-.1c.2-.1.4-.2.6-.2s.4.1.5.2zm-2.9 9.6 11.4 6.6v-2l2 1.2v1.8.5l-1 1c-.1.1-.4.2-.5.1l-8.4-4.9v9.3c0 .1 0 .2-.1.3l-.2-.2.2.2-1.4 1.1c-.1 0-.1.1-.2.1-.2 0-.3-.1-.3-.3v-11.6l-1.9-1.1-1 .6-.6.3c-.1.1-.3 0-.4-.1l.3-.1-.3.1-.4-.6-.3-.6c-.1-.1 0-.3.1-.4l.1.3-.1-.3.6-.4 1.5-.9.2-.2c.1-.1.2-.1.3 0z"
              fill="#0ebac5"/>
        <path d="m28.8 19.2c-.1 0-.2 0-.3-.1s-.1-.2-.1-.3v-11.3c0-.1 0-.2.1-.3s.2-.1.3-.1h2.4c.1 0 .2 0 .3.1s.1.2.1.3v9h5.2c.1 0 .2 0 .3.1s.1.2.1.3v1.8c0 .1 0 .2-.1.3s-.2.1-.3.1h-8zm9.3 0c-.1 0-.2 0-.3-.1s-.1-.2-.1-.3 0-.1 0-.2l4-11.1c.1-.3.3-.5.7-.5h2.7c.3 0 .6.2.7.5l4 11.1v.2c0 .1 0 .2-.1.3s-.2.1-.3.1h-2.3c-.3 0-.5-.1-.6-.4l-.6-1.7h-4.5l-.6 1.7c-.1.3-.3.4-.6.4zm4.2-4.7h3.1l-1.5-4.4zm9.4 4.7c-.1 0-.2 0-.3-.1s-.1-.2-.1-.3v-11.3c0-.1 0-.2.1-.3s.2-.1.3-.1h2c.3 0 .5.1.6.4l3 5.3 3-5.3c.1-.3.3-.4.6-.4h2c.1 0 .2 0 .3.1s.1.2.1.3v11.2c0 .1 0 .2-.1.3s-.2.1-.3.1h-2.2c-.1 0-.2 0-.3-.1s-.1-.2-.1-.3v-6.3l-1.9 3.4c-.2.3-.4.4-.6.4h-.9c-.2 0-.4-.1-.6-.4l-1.9-3.4v6.3c0 .1 0 .2-.1.3s-.2.1-.3.1h-2.3zm14.4 0c-.1 0-.2 0-.3-.1s-.1-.2-.1-.3v-11.3c0-.1 0-.2.1-.3s.2-.1.3-.1h5.3c1.5 0 2.6.3 3.3.9s1.1 1.5 1.1 2.6c0 .6-.1 1-.4 1.4s-.6.7-1 .9c.5.2.9.6 1.2 1 .3.5.5 1 .5 1.6 0 1.2-.4 2.1-1.2 2.7s-1.9 1-3.3 1zm4.9-7.4c.4 0 .8-.1 1-.3s.3-.5.3-.9-.1-.6-.3-.9c-.2-.2-.6-.3-1-.3h-2.2v2.5h2.2zm.2 5c.4 0 .8-.1 1-.4s.4-.6.4-1-.1-.7-.4-1-.6-.4-1-.4h-2.3v2.7h2.3zm7.1 2.4c-.1 0-.2 0-.3-.1s-.1-.2-.1-.3v-11.3c0-.1 0-.2.1-.3s.2-.1.3-.1h4.6c1.7 0 3 .4 4 1.2.9.8 1.4 2 1.5 3.5v1.3 1.3c-.1 3.2-1.9 4.7-5.4 4.7h-4.7zm4.6-2.6c.7 0 1.3-.2 1.6-.5s.5-.9.6-1.7c0-.3 0-.8 0-1.3s0-1 0-1.3c0-.7-.2-1.3-.6-1.6-.4-.4-.9-.5-1.7-.5h-1.6v6.9zm6.7 2.6c-.1 0-.2 0-.3-.1s-.1-.2-.1-.3 0-.1 0-.2l4-11.1c.1-.3.3-.5.7-.5h2.7c.3 0 .6.2.7.5l4 11.1v.2c0 .1 0 .2-.1.3s-.2.1-.3.1h-2.3c-.3 0-.5-.1-.6-.4l-.6-1.7h-4.5l-.6 1.7c-.1.3-.3.4-.6.4zm4.2-4.7h3.1l-1.5-4.4z"
              fill="#0ebac5"/>
        <path d="m105.9 19.2c-.1 0-.2 0-.3-.1s-.1-.2-.1-.3v-8.9h-3c-.1 0-.2 0-.3-.1s-.1-.2-.1-.3v-2c0-.1 0-.2.1-.3s.2-.1.3-.1h9.4c.1 0 .2 0 .3.1s.1.2.1.3v1.9c0 .1 0 .2-.1.3s-.2.1-.3.1h-3v8.9c0 .1 0 .2-.1.3s-.2.1-.3.1h-2.6zm8.3 0c-.1 0-.2 0-.3-.1s-.1-.2-.1-.3v-11.3c0-.1 0-.2.1-.3s.2-.1.3-.1h8.2c.1 0 .2 0 .3.1s.1.2.1.3v1.7c0 .1 0 .2-.1.3s-.2.1-.3.1h-5.5v2.2h5.1c.1 0 .2 0 .3.1s.1.2.1.3v1.6c0 .1 0 .2-.1.3s-.2.1-.3.1h-5.1v2.3h5.6c.1 0 .2 0 .3.1s.1.2.1.3v1.7c0 .1 0 .2-.1.3s-.2.1-.3.1h-8.3zm15.3.1c-1.1 0-2.1-.2-2.9-.5s-1.4-.8-1.8-1.3-.6-1.1-.6-1.7c0-.1 0-.2.1-.3s.2-.1.3-.1h2.3c.1 0 .3 0 .3.1.1 0 .2.1.3.2.2.3.4.5.7.7s.7.3 1.3.3 1.1-.1 1.4-.3.5-.5.5-.8c0-.2-.1-.4-.3-.6s-.4-.3-.8-.4-.9-.3-1.6-.4c-1.4-.3-2.4-.7-3.1-1.3s-1-1.4-1-2.4c0-.7.2-1.4.6-1.9.4-.6 1-1 1.7-1.3s1.6-.5 2.6-.5 1.9.2 2.6.5c.7.4 1.3.8 1.7 1.3s.6 1 .6 1.5c0 .1 0 .2-.1.3s-.2.1-.3.1h-2.4c-.3 0-.5-.1-.6-.3s-.2-.4-.5-.6-.6-.3-1.1-.3-.9.1-1.1.3c-.3.2-.4.4-.4.8 0 .3.2.6.5.8s1 .4 1.9.6c1.1.2 1.9.4 2.6.7.6.3 1.1.7 1.4 1.1.3.5.5 1.1.5 1.8 0 .8-.2 1.5-.7 2-.4.6-1.1 1-1.9 1.3-.8.5-1.7.6-2.7.6zm10-.1c-.1 0-.2 0-.3-.1s-.1-.2-.1-.3v-8.9h-3c-.1 0-.2 0-.3-.1s-.1-.2-.1-.3v-2c0-.1 0-.2.1-.3s.2-.1.3-.1h9.4c.1 0 .2 0 .3.1s.1.2.1.3v1.9c0 .1 0 .2-.1.3s-.2.1-.3.1h-3v8.9c0 .1 0 .2-.1.3s-.2.1-.3.1h-2.6z"
              fill="#343534"/>
    </g>
</svg>